<svg width="44" height="44" fill="none" xmlns="http://www.w3.org/2000/svg"><defs><clipPath id="clip1_975"><path id="image" transform="translate(12.5 10.5)" fill="#fff" fill-opacity="0" d="M0 0h19v23H0z"/></clipPath><clipPath id="clip1_974"><path id="image fill" transform="translate(12.5 10.5)" fill="#fff" fill-opacity="0" d="M0 0h19v23H0z"/></clipPath></defs><rect id="Item → Link" rx="8" width="44" height="44" fill="#000" fill-opacity="1"/><g clip-path="url('#clip1_974')"><g clip-path="url('#clip1_975')" fill-opacity="1" fill-rule="nonzero"><path id="Vector" d="M31.102 28.08a12.27 12.27 0 0 1-1.213 2.179c-.638.91-1.16 1.538-1.562 1.888-.624.574-1.292.867-2.008.884-.514 0-1.133-.146-1.855-.443-.723-.295-1.388-.441-1.996-.441-.638 0-1.322.146-2.053.44-.733.298-1.323.452-1.774.468-.687.03-1.37-.273-2.054-.908-.435-.38-.98-1.032-1.634-1.955-.7-.986-1.276-2.129-1.727-3.432-.484-1.408-.726-2.77-.726-4.09 0-1.512.327-2.816.98-3.908a5.753 5.753 0 0 1 2.055-2.079 5.53 5.53 0 0 1 2.778-.783c.545 0 1.26.168 2.148.5.886.332 1.455.5 1.704.5.186 0 .818-.196 1.89-.59 1.012-.364 1.867-.515 2.568-.455 1.897.153 3.323.9 4.271 2.249-1.697 1.028-2.536 2.468-2.52 4.316.015 1.44.538 2.637 1.564 3.588a5.12 5.12 0 0 0 1.562 1.025c-.125.363-.258.71-.398 1.046Zm-4.353-17.13c0 1.128-.412 2.182-1.233 3.157-.992 1.16-2.19 1.828-3.491 1.723a3.5 3.5 0 0 1-.026-.428c0-1.083.471-2.242 1.308-3.19.418-.48.95-.878 1.595-1.196.643-.313 1.251-.486 1.824-.516.016.15.024.3.023.45Z" fill="#B3B3B3"/><path id="Vector" d="M31.102 28.08a12.27 12.27 0 0 1-1.213 2.179c-.638.91-1.16 1.538-1.562 1.888-.624.574-1.292.867-2.008.884-.514 0-1.133-.146-1.855-.443-.723-.295-1.388-.441-1.996-.441-.638 0-1.322.146-2.053.44-.733.298-1.323.452-1.774.468-.687.03-1.37-.273-2.054-.908-.435-.38-.98-1.032-1.634-1.955-.7-.986-1.276-2.129-1.727-3.432-.484-1.408-.726-2.77-.726-4.09 0-1.512.327-2.816.98-3.908a5.753 5.753 0 0 1 2.055-2.079 5.53 5.53 0 0 1 2.778-.783c.545 0 1.26.168 2.148.5.886.332 1.455.5 1.704.5.186 0 .818-.196 1.89-.59 1.012-.364 1.867-.515 2.568-.455 1.897.153 3.323.9 4.271 2.249-1.697 1.028-2.536 2.468-2.52 4.316.015 1.44.538 2.637 1.564 3.588a5.12 5.12 0 0 0 1.562 1.025c-.125.363-.258.71-.398 1.046Zm-4.353-17.13c0 1.128-.412 2.182-1.233 3.157-.992 1.16-2.19 1.828-3.491 1.723a3.5 3.5 0 0 1-.026-.428c0-1.083.471-2.242 1.308-3.19.418-.48.95-.878 1.595-1.196.643-.313 1.251-.486 1.824-.516.016.15.024.3.023.45Z" fill="#FFF"/></g></g></svg>