<svg width="44" height="44" fill="none" xmlns="http://www.w3.org/2000/svg"><defs><clipPath id="clip1_981"><path id="image" transform="translate(12 11)" fill="#fff" fill-opacity="0" d="M0 0h20v22H0z"/></clipPath><clipPath id="clip1_980"><path id="image fill" transform="translate(12 11)" fill="#fff" fill-opacity="0" d="M0 0h20v22H0z"/></clipPath></defs><rect id="Item → Link" rx="8" width="44" height="44" fill="#000" fill-opacity="1"/><g clip-path="url('#clip1_980')"><g clip-path="url('#clip1_981')" fill-opacity="1" fill-rule="nonzero"><path id="Vector" d="m21.311 21.508-9.228 9.669a2.505 2.505 0 0 0 3.665 1.485l10.384-5.914-4.82-5.24h-.001Z" fill="#EA4335"/><path id="Vector" d="m30.643 19.864-4.49-2.572-5.055 4.436 5.075 5.006 4.456-2.544a2.44 2.44 0 0 0 0-4.326h.014Z" fill="#FBBC04"/><path id="Vector" d="M12.083 12.83a2.38 2.38 0 0 0-.083.631v17.082c0 .213.028.426.083.633l9.545-9.422-9.545-8.924Z" fill="#4285F4"/><path id="Vector" d="m21.38 22.003 4.773-4.71-10.37-5.943a2.557 2.557 0 0 0-1.288-.35 2.502 2.502 0 0 0-2.412 1.822l9.297 9.18Z" fill="#34A853"/></g></g></svg>