<svg width="44" height="44" fill="none" xmlns="http://www.w3.org/2000/svg"><defs><clipPath id="clip1_989"><path id="image" transform="translate(7 9.625)" fill="#fff" fill-opacity="0" d="M0 0h30v18.75H0z"/></clipPath><clipPath id="clip1_988"><path id="image fill" transform="translate(7 9.5)" fill="#fff" fill-opacity="0" d="M0 0h30v19H0z"/></clipPath></defs><rect id="Item → Link" rx="8" width="44" height="44" fill="#C8102E" fill-opacity="1"/><g clip-path="url('#clip1_988')"><g clip-path="url('#clip1_989')"><path id="Vector" d="M10.678 22.754h.993v4.903h-.993v-1.991H8.432v1.99h-.996v-4.902h.996v1.978h2.246v-1.978Zm5.603 2.808c0 .797-.395 1.223-1.113 1.223-.724 0-1.122-.44-1.122-1.257v-2.77h-.995v2.803c0 1.378.767 2.169 2.102 2.169 1.35 0 2.122-.806 2.122-2.212v-2.765h-.994v2.81Zm11.496.564-1.114-3.371h-.81l-1.116 3.37-1.083-3.368h-1.06l1.711 4.9h.823l1.115-3.218 1.115 3.218h.828l1.707-4.9H28.86l-1.084 3.369Zm3.9-.578h1.81v-.891h-1.81v-1.003h2.628v-.895h-3.608v4.897H34.4v-.894h-2.722v-1.214Zm3.907 2.103h.983v-4.896h-.983v4.896Zm-16.343-1.017-.446 1.022h-1.017l2.161-4.901h.878l2.151 4.901h-1.043l-.44-1.022H19.24Zm.37-.882h1.504l-.753-1.753-.752 1.753Zm2.388-9.24a6.248 6.248 0 0 1-6.24-6.243h.881a5.368 5.368 0 0 0 5.362 5.36 5.367 5.367 0 0 0 5.36-5.36h.883c-.005 3.443-2.804 6.244-6.245 6.244h-.001Z" fill="#FFF" fill-opacity="1" fill-rule="nonzero"/></g></g></svg>