<svg width="44" height="44" fill="none" xmlns="http://www.w3.org/2000/svg"><defs><clipPath id="clip1_994"><path id="image" transform="translate(8 7.5)" fill="#fff" fill-opacity="0" d="M0 0h28v29H0z"/></clipPath><clipPath id="clip1_993"><path id="image fill" transform="translate(8 7.5)" fill="#fff" fill-opacity="0" d="M0 0h28v29H0z"/></clipPath></defs><rect id="Item → Link" rx="8" width="44" height="44" fill="#000" fill-opacity="1"/><g clip-path="url('#clip1_993')"><g clip-path="url('#clip1_994')" fill-opacity="1"><path id="Vector" d="M12.088 36.094h-.941l-1.494-2.055h-.785v2.055h-.801v-5.407h1.929c.373 0 .707.072 1.003.215.295.143.524.342.684.598.166.25.25.54.25.867 0 .409-.128.759-.382 1.05-.254.287-.594.476-1.019.568l1.556 2.109Zm-3.22-4.678v1.902h1.128c.332 0 .598-.087.8-.261a.87.87 0 0 0 .312-.69.848.848 0 0 0-.311-.683c-.203-.179-.47-.268-.801-.268H8.868ZM14.214 36.17c-.286 0-.542-.068-.77-.206a1.504 1.504 0 0 1-.537-.583 1.807 1.807 0 0 1-.194-.844V32.13h.762v2.347c0 .301.085.547.256.736a.85.85 0 0 0 .662.284.93.93 0 0 0 .7-.292 1.01 1.01 0 0 0 .28-.728v-2.347h.762v3.965h-.545l-.178-.598c-.13.214-.301.38-.514.498a1.363 1.363 0 0 1-.684.177ZM18.976 36.17c-.503 0-.94-.127-1.314-.383a1.95 1.95 0 0 1-.755-1.058l.77-.123c.15.287.33.499.537.637.208.133.462.2.762.2.306 0 .555-.067.747-.2a.655.655 0 0 0 .288-.56.62.62 0 0 0-.163-.437 1.14 1.14 0 0 0-.397-.284c-.16-.072-.37-.151-.63-.238a6.095 6.095 0 0 1-.856-.337 1.627 1.627 0 0 1-.567-.476c-.15-.21-.226-.475-.226-.797 0-.302.075-.565.226-.79a1.5 1.5 0 0 1 .637-.53c.27-.122.57-.183.902-.183.462 0 .859.12 1.19.36.332.235.568.56.708.974l-.754.123a1.183 1.183 0 0 0-.444-.537 1.193 1.193 0 0 0-.676-.192c-.28 0-.511.067-.692.2a.612.612 0 0 0-.273.529c0 .168.052.312.156.43.109.117.241.212.397.283.16.072.373.153.637.245.337.113.617.228.84.345.229.113.42.274.576.483.155.21.233.473.233.79 0 .307-.083.576-.249.806-.16.23-.383.409-.668.537a2.32 2.32 0 0 1-.942.184ZM24.055 35.434l-.07.66h-.708c-.42 0-.739-.102-.956-.307-.218-.204-.327-.498-.327-.882v-2.109h-.692v-.667h.692l.21-1.15h.552v1.15h1.229v.667h-1.229v2.109c0 .353.174.53.521.53h.778ZM26.597 36.17a2.27 2.27 0 0 1-1.097-.26 1.901 1.901 0 0 1-.754-.729 2.08 2.08 0 0 1-.272-1.066c0-.398.09-.754.272-1.066.181-.312.433-.554.754-.728a2.216 2.216 0 0 1 1.097-.268c.41 0 .775.089 1.097.268.321.174.573.416.754.728.182.312.272.668.272 1.066 0 .4-.09.755-.272 1.066a1.901 1.901 0 0 1-.754.729 2.269 2.269 0 0 1-1.097.26Zm0-.69c.394 0 .713-.125.957-.375.249-.25.373-.58.373-.99 0-.409-.124-.738-.373-.989-.244-.255-.563-.383-.957-.383s-.713.128-.957.383c-.244.25-.365.58-.365.99 0 .403.122.733.365.989.244.25.563.376.957.376ZM29.538 36.094v-3.965h.552l.163.568c.12-.2.267-.343.444-.43.176-.092.386-.138.63-.138h.186l.063.72h-.436c-.28 0-.49.08-.63.239-.14.158-.21.373-.21.644v2.362h-.762ZM35.933 34.085c0 .102-.002.181-.008.237h-3.32c.04.353.18.634.42.844.238.21.541.315.91.315.253 0 .48-.05.676-.146.202-.102.355-.235.459-.399l.716.115a1.708 1.708 0 0 1-.755.828 2.277 2.277 0 0 1-1.143.292c-.4 0-.757-.087-1.073-.261a1.912 1.912 0 0 1-.74-.736 2.112 2.112 0 0 1-.264-1.059c0-.398.088-.754.265-1.066.176-.312.42-.554.73-.728a2.098 2.098 0 0 1 1.066-.268c.394 0 .747.089 1.058.268.316.174.563.416.739.728.176.307.264.652.264 1.036Zm-2.06-1.365c-.307 0-.571.09-.794.268-.218.179-.363.42-.436.721h2.458a1.235 1.235 0 0 0-.435-.713 1.188 1.188 0 0 0-.794-.276Z" fill="#FFF" fill-rule="nonzero"/><path id="Vector" d="M14.437 23.7c1.237 1.22 3.229 1.22 7.211 1.22h.704c3.983 0 5.974 0 7.21-1.22 1.238-1.22 1.238-3.183 1.238-7.11v-.694c0-3.926 0-5.89-1.237-7.11-1.237-1.22-3.228-1.22-7.21-1.22h-.705c-3.982 0-5.974 0-7.21 1.22-1.238 1.22-1.238 3.184-1.238 7.11v.695c0 3.926 0 5.89 1.237 7.11Z" fill="#07F" fill-rule="nonzero"/><path id="Vector" d="m26.788 19.1-1.189-.292a.34.34 0 0 1-.25-.315l-.148-4.316a1.348 1.348 0 0 0-.922-1.16.06.06 0 0 0-.067.025.05.05 0 0 0 .012.068c.11.085.416.36.416.838v5.642c0 .545-.523.945-1.061.812l-1.208-.297a.342.342 0 0 1-.232-.311l-.148-4.316a1.347 1.347 0 0 0-.922-1.16.06.06 0 0 0-.068.024.05.05 0 0 0 .012.069c.111.084.417.36.417.837l-.001 4.704v.94c0 .544-.522.944-1.06.811l-3.411-.84a1.05 1.05 0 0 1-.807-1.015v-5.651c0-.545.522-.944 1.061-.812l2.15.53v-1.019c0-.545.521-.945 1.06-.812l2.149.53v-1.02c0-.544.522-.944 1.06-.811l3.412.84c.474.117.806.535.806 1.015v5.651c0 .545-.522.945-1.06.812Z" fill="#FFF" fill-rule="evenodd"/></g></g></svg>