<svg width="44.000000" height="44.000000" viewBox="0 0 44 44" fill="none" xmlns="http://www.w3.org/2000/svg" xmlns:xlink="http://www.w3.org/1999/xlink">
	<desc>
			Created with Pixso.
	</desc>
	<defs>
		<clipPath id="clip1_975">
			<rect id="image" width="19.000000" height="23.000000" transform="translate(12.500000 10.500000)" fill="white" fill-opacity="0"/>
		</clipPath>
		<clipPath id="clip1_974">
			<rect id="image fill" width="19.000000" height="23.000000" transform="translate(12.500000 10.500000)" fill="white" fill-opacity="0"/>
		</clipPath>
	</defs>
	<rect id="Item → Link" rx="8.000000" width="44.000000" height="44.000000" fill="#000000" fill-opacity="1.000000"/>
	<g clip-path="url(#clip1_974)">
		<g clip-path="url(#clip1_975)">
			<path id="Vector" d="M31.102 28.0791C30.7728 28.845 30.3664 29.5754 29.889 30.259C29.251 31.1689 28.729 31.7971 28.327 32.147C27.703 32.7209 27.035 33.0139 26.319 33.031C25.805 33.031 25.186 32.885 24.464 32.5879C23.741 32.293 23.076 32.147 22.468 32.147C21.83 32.147 21.146 32.293 20.415 32.5879C19.682 32.885 19.092 33.0391 18.641 33.0549C17.954 33.085 17.271 32.782 16.587 32.147C16.152 31.7671 15.607 31.115 14.953 30.1919C14.253 29.2061 13.677 28.063 13.226 26.76C12.742 25.3521 12.5 23.99 12.5 22.6699C12.5 21.158 12.827 19.854 13.48 18.762C13.9746 17.9036 14.6825 17.1875 15.535 16.6831C16.3753 16.1807 17.334 15.9104 18.313 15.8999C18.858 15.8999 19.573 16.0681 20.461 16.3999C21.347 16.7319 21.916 16.8999 22.165 16.8999C22.351 16.8999 22.983 16.7041 24.055 16.3101C25.067 15.946 25.922 15.7949 26.623 15.855C28.52 16.0081 29.946 16.7549 30.894 18.104C29.197 19.1321 28.358 20.572 28.374 22.4199C28.389 23.8601 28.912 25.0569 29.938 26.0081C30.403 26.45 30.922 26.791 31.5 27.033C31.375 27.396 31.242 27.7439 31.102 28.0791ZM26.749 10.95C26.749 12.0779 26.337 13.1321 25.516 14.1069C24.524 15.2661 23.326 15.9351 22.025 15.8301C22.0076 15.688 21.9989 15.5452 21.999 15.4021C21.999 14.3191 22.47 13.1599 23.307 12.2119C23.725 11.7319 24.257 11.334 24.902 11.0161C25.545 10.7029 26.153 10.53 26.726 10.5C26.7419 10.6499 26.7496 10.8003 26.749 10.9509L26.749 10.95Z" fill="#B3B3B3" fill-opacity="1.000000" fill-rule="nonzero"/>
			<path id="Vector" d="M31.102 28.0791C30.7728 28.845 30.3664 29.5754 29.889 30.259C29.251 31.1689 28.729 31.7971 28.327 32.147C27.703 32.7209 27.035 33.0139 26.319 33.031C25.805 33.031 25.186 32.885 24.464 32.5879C23.741 32.293 23.076 32.147 22.468 32.147C21.83 32.147 21.146 32.293 20.415 32.5879C19.682 32.885 19.092 33.0391 18.641 33.0549C17.954 33.085 17.271 32.782 16.587 32.147C16.152 31.7671 15.607 31.115 14.953 30.1919C14.253 29.2061 13.677 28.063 13.226 26.76C12.742 25.3521 12.5 23.99 12.5 22.6699C12.5 21.158 12.827 19.854 13.48 18.762C13.9746 17.9036 14.6825 17.1875 15.535 16.6831C16.3753 16.1807 17.334 15.9104 18.313 15.8999C18.858 15.8999 19.573 16.0681 20.461 16.3999C21.347 16.7319 21.916 16.8999 22.165 16.8999C22.351 16.8999 22.983 16.7041 24.055 16.3101C25.067 15.946 25.922 15.7949 26.623 15.855C28.52 16.0081 29.946 16.7549 30.894 18.104C29.197 19.1321 28.358 20.572 28.374 22.4199C28.389 23.8601 28.912 25.0569 29.938 26.0081C30.403 26.45 30.922 26.791 31.5 27.033C31.375 27.396 31.242 27.7439 31.102 28.0791ZM26.749 10.95C26.749 12.0779 26.337 13.1321 25.516 14.1069C24.524 15.2661 23.326 15.9351 22.025 15.8301C22.0076 15.688 21.9989 15.5452 21.999 15.4021C21.999 14.3191 22.47 13.1599 23.307 12.2119C23.725 11.7319 24.257 11.334 24.902 11.0161C25.545 10.7029 26.153 10.53 26.726 10.5C26.7419 10.6499 26.7496 10.8003 26.749 10.9509L26.749 10.95Z" fill="#FFFFFF" fill-opacity="1.000000" fill-rule="nonzero"/>
		</g>
	</g>
</svg>
