<svg width="44.000000" height="44.000000" viewBox="0 0 44 44" fill="none" xmlns="http://www.w3.org/2000/svg" xmlns:xlink="http://www.w3.org/1999/xlink">
	<desc>
			Created with Pixso.
	</desc>
	<defs>
		<clipPath id="clip1_989">
			<rect id="image" width="30.000000" height="18.750000" transform="translate(7.000000 9.625000)" fill="white" fill-opacity="0"/>
		</clipPath>
		<clipPath id="clip1_988">
			<rect id="image fill" width="30.000000" height="19.000000" transform="translate(7.000000 9.500000)" fill="white" fill-opacity="0"/>
		</clipPath>
	</defs>
	<rect id="Item → Link" rx="8.000000" width="44.000000" height="44.000000" fill="#C8102E" fill-opacity="1.000000"/>
	<g clip-path="url(#clip1_988)">
		<g clip-path="url(#clip1_989)">
			<path id="Vector" d="M10.6778 22.7537L11.6715 22.7537L11.6715 27.6567L10.6778 27.6567L10.6778 25.6655L8.43152 25.6655L8.43152 27.6567L7.43591 27.6567L7.43591 22.7537L8.43152 22.7537L8.43152 24.7319L10.6778 24.7319L10.6778 22.7537ZM16.2812 25.5625C16.2812 26.3594 15.8856 26.7849 15.1675 26.7849C14.4437 26.7849 14.0462 26.3452 14.0462 25.5278L14.0462 22.7576L13.0506 22.7576L13.0506 25.5605C13.0506 26.9387 13.8175 27.73 15.1534 27.73C16.5034 27.73 17.275 26.9238 17.275 25.5183L17.275 22.7527L16.2812 22.7527L16.2812 25.5625ZM27.7769 26.126L26.6631 22.7546L25.8522 22.7546L24.7375 26.125L23.6537 22.7566L22.5944 22.7566L24.3053 27.6567L25.1275 27.6567L26.2431 24.4385L27.3578 27.6567L28.1865 27.6567L29.8928 22.7566L28.8615 22.7566L27.7769 26.126ZM31.6769 25.5483L33.4862 25.5483L33.4862 24.6567L31.6769 24.6567L31.6769 23.6538L34.3047 23.6538L34.3047 22.7593L30.6971 22.7593L30.6971 27.656L34.3994 27.656L34.3994 26.7615L31.6769 26.7615L31.6769 25.5483ZM35.5844 27.6511L36.5668 27.6511L36.5668 22.7546L35.5844 22.7546L35.5844 27.6511ZM19.2409 26.634L18.7947 27.656L17.7784 27.656L19.9393 22.7546L20.8168 22.7546L22.9684 27.656L21.925 27.656L21.4844 26.634L19.24 26.634L19.2409 26.634ZM19.6103 25.752L21.115 25.752L20.3622 23.9988L19.6103 25.752ZM21.999 16.5127C20.3439 16.5107 18.7573 15.8523 17.5872 14.6816C16.4172 13.511 15.7593 11.9241 15.7581 10.269L16.6403 10.269C16.642 11.6904 17.2075 13.053 18.2126 14.0581C19.2178 15.063 20.5805 15.6282 22.0018 15.6296C23.423 15.6279 24.7855 15.0625 25.7905 14.0576C26.7954 13.0527 27.3607 11.6902 27.3625 10.269L28.2447 10.269C28.24 13.7124 25.4406 16.5127 22 16.5127L21.999 16.5127Z" fill="#FFFFFF" fill-opacity="1.000000" fill-rule="nonzero"/>
		</g>
	</g>
</svg>
