<svg width="44.000000" height="44.000000" viewBox="0 0 44 44" fill="none" xmlns="http://www.w3.org/2000/svg" xmlns:xlink="http://www.w3.org/1999/xlink">
	<desc>
			Created with Pixso.
	</desc>
	<defs>
		<clipPath id="clip1_994">
			<rect id="image" width="28.000000" height="29.000000" transform="translate(8.000000 7.500000)" fill="white" fill-opacity="0"/>
		</clipPath>
		<clipPath id="clip1_993">
			<rect id="image fill" width="28.000000" height="29.000000" transform="translate(8.000000 7.500000)" fill="white" fill-opacity="0"/>
		</clipPath>
	</defs>
	<rect id="Item → Link" rx="8.000000" width="44.000000" height="44.000000" fill="#000000" fill-opacity="1.000000"/>
	<g clip-path="url(#clip1_993)">
		<g clip-path="url(#clip1_994)">
			<path id="Vector" d="M12.0879 36.094L11.1467 36.094L9.65338 34.0386L8.86774 34.0386L8.86774 36.094L8.06665 36.094L8.06665 30.6873L9.99561 30.6873C10.369 30.6873 10.7034 30.7588 10.999 30.9019C11.2945 31.0452 11.5226 31.2444 11.6833 31.5002C11.8493 31.7507 11.9323 32.0396 11.9323 32.3667C11.9323 32.7756 11.8052 33.126 11.5511 33.4175C11.2971 33.7039 10.9575 33.8931 10.5323 33.9849L12.0879 36.094ZM8.86774 31.4158L8.86774 33.3176L9.99561 33.3176C10.3275 33.3176 10.5945 33.2307 10.7967 33.0569C11.0041 32.8779 11.1078 32.6479 11.1078 32.3667C11.1078 32.0854 11.0041 31.8579 10.7967 31.6841C10.5945 31.5054 10.3275 31.4158 9.99561 31.4158L8.86774 31.4158Z" fill="#FFFFFF" fill-opacity="1.000000" fill-rule="nonzero"/>
			<path id="Vector" d="M14.2137 36.1707C13.9285 36.1707 13.6718 36.1016 13.4437 35.9636C13.2155 35.8203 13.0366 35.626 12.907 35.3806C12.7773 35.1301 12.7125 34.8489 12.7125 34.5371L12.7125 32.1289L13.4747 32.1289L13.4747 34.4756C13.4747 34.7773 13.5604 35.0227 13.7314 35.2119C13.9026 35.4011 14.1229 35.4956 14.3926 35.4956C14.6726 35.4956 14.9059 35.3987 15.0926 35.2043C15.2793 35.01 15.3726 34.7671 15.3726 34.4756L15.3726 32.1289L16.1348 32.1289L16.1348 36.094L15.5903 36.094L15.4115 35.4956C15.2819 35.7104 15.1107 35.8767 14.8981 35.9941C14.6907 36.1118 14.4625 36.1707 14.2137 36.1707Z" fill="#FFFFFF" fill-opacity="1.000000" fill-rule="nonzero"/>
			<path id="Vector" d="M18.9764 36.1707C18.4734 36.1707 18.0353 36.043 17.6619 35.7871C17.2937 35.5266 17.0422 35.1736 16.9075 34.729L17.6775 34.6062C17.8278 34.8926 18.0067 35.1047 18.2141 35.2427C18.4216 35.3755 18.6756 35.4421 18.9764 35.4421C19.2823 35.4421 19.5312 35.3755 19.723 35.2427C19.9149 35.1047 20.0109 34.918 20.0109 34.6829C20.0109 34.509 19.9564 34.3633 19.8475 34.2456C19.7438 34.1282 19.6116 34.0337 19.4508 33.9619C19.2901 33.8904 19.0801 33.811 18.8208 33.7241C18.4734 33.6118 18.1882 33.4993 17.9652 33.3867C17.7423 33.2744 17.553 33.1157 17.3975 32.9114C17.2471 32.7017 17.1719 32.4358 17.1719 32.1138C17.1719 31.812 17.2471 31.5486 17.3975 31.3237C17.553 31.0938 17.7656 30.9172 18.0353 30.7947C18.3049 30.6719 18.6057 30.6106 18.9375 30.6106C19.399 30.6106 19.7956 30.7307 20.1275 30.9709C20.4594 31.2063 20.6953 31.5308 20.8353 31.9451L20.0808 32.0676C19.9771 31.8325 19.8294 31.6536 19.6375 31.5308C19.4457 31.4031 19.2201 31.3391 18.9608 31.3391C18.6808 31.3391 18.45 31.4055 18.2686 31.5386C18.0871 31.6665 17.9963 31.8428 17.9963 32.0676C17.9963 32.2363 18.0482 32.3796 18.1519 32.4971C18.2608 32.6147 18.3931 32.7095 18.5486 32.781C18.7093 32.8525 18.9219 32.9343 19.1864 33.0264C19.5234 33.1389 19.8034 33.2539 20.0264 33.3713C20.2546 33.4839 20.4464 33.645 20.602 33.8545C20.7575 34.0642 20.8353 34.3274 20.8353 34.6445C20.8353 34.9514 20.7523 35.2197 20.5864 35.4497C20.4256 35.6799 20.2027 35.8589 19.9175 35.9866C19.6375 36.1094 19.3238 36.1707 18.9764 36.1707Z" fill="#FFFFFF" fill-opacity="1.000000" fill-rule="nonzero"/>
			<path id="Vector" d="M24.0551 35.4343L23.985 36.0938L23.2772 36.0938C22.8574 36.0938 22.5383 35.9915 22.3206 35.7871C22.1028 35.5825 21.994 35.2886 21.994 34.905L21.994 32.7961L21.3016 32.7961L21.3016 32.1289L21.994 32.1289L22.2039 30.9785L22.7562 30.9785L22.7562 32.1289L23.985 32.1289L23.985 32.7961L22.7562 32.7961L22.7562 34.905C22.7562 35.2578 22.9299 35.4343 23.2772 35.4343L24.0551 35.4343Z" fill="#FFFFFF" fill-opacity="1.000000" fill-rule="nonzero"/>
			<path id="Vector" d="M26.5969 36.1709C26.1873 36.1709 25.8217 36.0837 25.5002 35.9099C25.1787 35.7361 24.9273 35.4934 24.7458 35.1814C24.5643 34.8696 24.4736 34.5144 24.4736 34.1155C24.4736 33.7166 24.5643 33.3613 24.7458 33.0493C24.9273 32.7375 25.1787 32.4946 25.5002 32.3208C25.8217 32.1418 26.1873 32.0525 26.5969 32.0525C27.0067 32.0525 27.3721 32.1418 27.6936 32.3208C28.0151 32.4946 28.2666 32.7375 28.4481 33.0493C28.6296 33.3613 28.7203 33.7166 28.7203 34.1155C28.7203 34.5144 28.6296 34.8696 28.4481 35.1814C28.2666 35.4934 28.0151 35.7361 27.6936 35.9099C27.3721 36.0837 27.0067 36.1709 26.5969 36.1709ZM26.5969 35.4805C26.991 35.4805 27.3101 35.3552 27.5536 35.1047C27.8026 34.8542 27.927 34.5244 27.927 34.1155C27.927 33.7063 27.8026 33.3767 27.5536 33.126C27.3101 32.8706 26.991 32.7427 26.5969 32.7427C26.2028 32.7427 25.884 32.8706 25.6403 33.126C25.3965 33.3767 25.2747 33.7063 25.2747 34.1155C25.2747 34.5193 25.3965 34.8491 25.6403 35.1047C25.884 35.3552 26.2028 35.4805 26.5969 35.4805Z" fill="#FFFFFF" fill-opacity="1.000000" fill-rule="nonzero"/>
			<path id="Vector" d="M29.5378 36.094L29.5378 32.1289L30.09 32.1289L30.2534 32.6965C30.3726 32.4971 30.5204 32.354 30.6967 32.2671C30.873 32.175 31.0831 32.1289 31.3267 32.1289L31.5134 32.1289L31.5756 32.8499L31.14 32.8499C30.8602 32.8499 30.65 32.9292 30.5101 33.0876C30.3701 33.2461 30.3 33.4607 30.3 33.7317L30.3 36.094L29.5378 36.094Z" fill="#FFFFFF" fill-opacity="1.000000" fill-rule="nonzero"/>
			<path id="Vector" d="M35.9333 34.0847C35.9333 34.187 35.9308 34.2664 35.9255 34.3225L32.6044 34.3225C32.6459 34.6753 32.7859 34.9565 33.0244 35.166C33.2629 35.3757 33.5662 35.4805 33.9344 35.4805C34.1885 35.4805 34.4141 35.4319 34.611 35.3347C34.8134 35.2327 34.9663 35.0996 35.07 34.936L35.7856 35.051C35.63 35.4089 35.3785 35.6851 35.0311 35.8794C34.6889 36.0735 34.3077 36.1709 33.8878 36.1709C33.4885 36.1709 33.1307 36.0837 32.8145 35.9099C32.498 35.7312 32.2518 35.4856 32.0756 35.1738C31.8992 34.8618 31.811 34.509 31.811 34.1155C31.811 33.7166 31.8992 33.3613 32.0756 33.0493C32.2518 32.7375 32.4955 32.4946 32.8066 32.3208C33.1177 32.1418 33.473 32.0525 33.8721 32.0525C34.2662 32.0525 34.6188 32.1418 34.9301 32.3208C35.2463 32.4946 35.4926 32.7375 35.6689 33.0493C35.8452 33.3562 35.9333 33.7012 35.9333 34.0847ZM33.8721 32.7197C33.5662 32.7197 33.3018 32.8091 33.0789 32.988C32.861 33.167 32.7158 33.4072 32.6432 33.709L35.1011 33.709C35.0338 33.4124 34.8885 33.1748 34.6655 32.9958C34.4478 32.8118 34.1833 32.7197 33.8721 32.7197Z" fill="#FFFFFF" fill-opacity="1.000000" fill-rule="nonzero"/>
			<path id="Vector" d="M14.4373 23.7004C15.6744 24.9204 17.6656 24.9204 21.6481 24.9204L22.3521 24.9204C26.3346 24.9204 28.3257 24.9204 29.5629 23.7004C30.8 22.4807 30.8 20.5171 30.8 16.5906L30.8 15.8962C30.8 11.9697 30.8 10.0063 29.5629 8.78638C28.3257 7.56665 26.3346 7.56665 22.3521 7.56665L21.6481 7.56665C17.6656 7.56665 15.6744 7.56665 14.4373 8.78638C13.2001 10.0063 13.2001 11.9697 13.2001 15.8962L13.2001 16.5906C13.2001 20.5171 13.2001 22.4807 14.4373 23.7004Z" fill="#0077FF" fill-opacity="1.000000" fill-rule="nonzero"/>
			<path id="Vector" d="M26.7885 19.1008L25.5993 18.8081C25.4561 18.7676 25.3549 18.6404 25.3499 18.4927L25.2015 14.1772C25.1586 13.606 24.7285 13.1516 24.2791 13.0178C24.2539 13.0103 24.2269 13.0205 24.212 13.042C24.1969 13.0637 24.2027 13.0938 24.2239 13.1099C24.3349 13.1946 24.6403 13.4709 24.6403 13.9478L24.6394 19.5903C24.6394 20.1353 24.1172 20.5349 23.5787 20.4021L22.3711 20.1047C22.2372 20.0586 22.1442 19.9355 22.1393 19.7937L21.9909 15.4778C21.948 14.9065 21.518 14.4524 21.0686 14.3186C21.0434 14.311 21.0164 14.321 21.0014 14.3425C20.9863 14.3643 20.9921 14.3943 21.0133 14.4106C21.1243 14.4954 21.4297 14.7717 21.4297 15.2483L21.4288 19.9519L21.4295 20.8916C21.4295 21.4363 20.9074 21.8359 20.3687 21.7034L16.9579 20.8633C16.4838 20.7463 16.1512 20.3281 16.1512 19.8484L16.1512 14.197C16.1512 13.6523 16.6734 13.2527 17.212 13.3853L19.3612 13.9148L19.3612 12.896C19.3612 12.3511 19.8833 11.9514 20.4219 12.0842L22.571 12.6135L22.571 11.5947C22.571 11.0498 23.0931 10.6501 23.6318 10.783L27.0426 11.623C27.5167 11.7397 27.8492 12.158 27.8492 12.6377L27.8492 18.2891C27.8492 18.834 27.327 19.2336 26.7885 19.1008Z" fill="#FFFFFF" fill-opacity="1.000000" fill-rule="evenodd"/>
		</g>
	</g>
</svg>
