<svg width="241" height="58" viewBox="0 0 241 58" fill="none" xmlns="http://www.w3.org/2000/svg">
<g clip-path="url(#clip0_1_15)">
<path d="M7.825 27.988L0.5 0.984H5.305L10.934 21.724L16.966 0.983L21.445 0.985L27.498 21.836L33.152 0.989L37.957 0.982L30.628 27.984L25.058 27.978L19.208 7.811L13.35 27.983L7.825 27.988ZM41.271 0.998H45.845V27.97H41.271V0.998ZM55.625 23.74H66.76V27.971H51.145V0.998H55.625V23.74ZM80.83 1.029C84.584 1.029 87.707 2.335 90.168 4.918C92.66 7.5 93.92 10.704 93.92 14.5C93.92 18.264 92.659 21.469 90.166 24.082C87.706 26.664 84.583 27.971 80.829 27.971H70.073V0.998H80.83V1.029ZM80.83 23.771C83.417 23.771 85.53 22.9 87.108 21.158C88.748 19.416 89.568 17.175 89.568 14.531C89.568 11.824 88.748 9.647 87.108 7.904C85.498 6.162 83.385 5.291 80.83 5.291H74.584V23.771H80.83ZM118.054 20.265C118.054 22.475 117.266 24.312 115.657 25.775C114.048 27.238 112.155 27.985 109.821 27.985H98.117V0.998H108.969C111.209 0.998 113.101 1.745 114.647 3.145C116.225 4.577 116.982 6.352 116.982 8.468C116.982 10.834 116.035 12.639 114.206 13.978C116.603 15.223 118.054 17.464 118.054 20.265ZM102.628 5.17V12.267H109C110.988 12.267 112.502 10.71 112.502 8.718C112.502 6.726 110.988 5.17 109 5.17H102.628ZM109.852 23.815C111.934 23.815 113.575 22.165 113.575 20.049C113.575 17.932 111.934 16.282 109.852 16.282H102.628V23.846H109.852V23.815ZM126.792 23.752H138.906V27.985H122.313V0.998H138.717V5.23H126.792V12.234H137.739V16.436H126.792V23.751V23.752ZM158.528 27.985L152.723 18.149H147.423V27.985H142.944V0.998H153.89C156.351 0.998 158.433 1.838 160.105 3.55C161.808 5.2 162.692 7.254 162.692 9.682C162.692 13.106 160.515 16.25 157.266 17.495L163.48 27.985H158.528ZM147.423 5.169V14.196H153.859C156.256 14.196 158.149 12.204 158.149 9.682C158.149 7.192 156.225 5.169 153.859 5.169H147.423ZM182.471 27.985L176.698 18.144H171.398V27.985H166.919V0.984H177.865C180.326 0.984 182.408 1.824 184.08 3.537C185.783 5.188 186.667 7.244 186.667 9.673C186.667 13.098 184.49 16.244 181.241 17.49L187.455 27.985H182.471ZM171.398 5.157V14.188H177.834C180.231 14.188 182.124 12.195 182.124 9.673C182.124 7.181 180.2 5.157 177.834 5.157H171.398ZM190.736 0.987H195.216V27.985H190.736V0.987ZM204.995 23.752H217.109V27.985H200.515V0.998H216.919V5.23H204.995V12.234H215.941V16.436H204.995V23.751V23.752ZM220.232 21.842L224.112 19.602C225.216 22.652 227.456 24.144 230.894 24.144C234.301 24.144 235.973 22.714 235.973 20.598C235.973 19.478 235.5 18.668 234.617 18.108C233.733 17.518 232.093 16.864 229.759 16.18C227.14 15.402 225.847 14.904 224.017 13.722C222.251 12.478 221.367 10.704 221.367 8.278C221.367 5.882 222.219 4.016 223.954 2.616C225.658 1.184 227.74 0.5 230.169 0.5C234.554 0.5 237.929 2.74 239.696 6.442L235.91 8.59C234.774 6.101 232.85 4.825 230.169 4.825C227.55 4.825 225.878 6.132 225.878 8.185C225.878 10.177 227.203 11.11 231.399 12.385C232.44 12.728 233.197 12.977 233.67 13.163C234.175 13.319 234.837 13.599 235.689 13.941C236.573 14.283 237.267 14.688 237.677 15.03C239.128 16.15 240.673 17.985 240.484 20.568C240.484 22.994 239.601 24.954 237.803 26.385C236.036 27.816 233.702 28.5 230.8 28.5C225.5 28.469 221.651 25.98 220.232 21.842Z" fill="white"/>
<path d="M28.5 30.784L220.418 23.5L221.436 50.046L29.518 57.33L28.5 30.784Z" fill="#91FD01"/>
<path d="M44.162 49.722L40.284 44.966L39.454 44.998L39.642 49.893L37.214 49.985L36.774 38.501L39.201 38.408L39.377 42.996L39.865 42.977L43.503 38.245L46.525 38.131L42.249 43.628L47.173 49.608L44.162 49.722ZM47.954 38.076L50.376 37.984L50.653 45.207L50.749 45.203L55.435 37.793L57.56 37.712L58 49.196L55.572 49.289L55.295 42.06L55.211 42.063L50.497 49.481L48.394 49.561L47.954 38.076ZM60.007 49.12L59.567 37.636L67.187 37.346L67.264 39.348L62.071 39.545L62.157 41.788L64.025 41.718C64.933 41.683 65.722 41.801 66.391 42.071C67.064 42.338 67.591 42.731 67.97 43.253C68.349 43.773 68.553 44.397 68.58 45.122C68.608 45.844 68.453 46.488 68.115 47.055C67.778 47.618 67.284 48.067 66.634 48.403C65.988 48.738 65.211 48.923 64.302 48.957L60.007 49.12ZM62.36 47.077L64.227 47.006C64.661 46.989 65.024 46.896 65.317 46.728C65.61 46.556 65.828 46.337 65.972 46.069C66.119 45.798 66.186 45.505 66.174 45.191C66.1685 44.9718 66.1149 44.7564 66.0171 44.5601C65.9194 44.3639 65.7797 44.1914 65.608 44.055C65.252 43.751 64.748 43.611 64.098 43.635L62.231 43.706L62.36 47.077ZM70.293 48.73L69.853 37.245L77.591 36.952L77.668 38.954L72.358 39.155L72.462 41.892L77.375 41.705L77.451 43.707L72.539 43.894L72.644 46.636L77.977 46.433L78.054 48.435L70.293 48.73ZM79.962 48.363L79.522 36.878L84.052 36.706C84.924 36.673 85.672 36.811 86.298 37.121C86.924 37.427 87.408 37.867 87.753 38.441C88.1 39.012 88.289 39.679 88.318 40.441C88.348 41.205 88.208 41.884 87.902 42.479C87.5929 43.0772 87.1134 43.5704 86.524 43.896C85.916 44.246 85.171 44.436 84.288 44.47L81.4 44.58L81.326 42.633L83.821 42.539C84.289 42.521 84.671 42.426 84.967 42.254C85.267 42.078 85.487 41.843 85.625 41.549C85.767 41.252 85.831 40.914 85.817 40.537C85.8119 40.1898 85.7198 39.8494 85.549 39.547C85.3865 39.2633 85.1378 39.0387 84.839 38.906C84.526 38.756 84.134 38.691 83.663 38.709L82.026 38.771L82.39 48.271L79.962 48.363ZM99.509 36.12L99.949 47.604L97.549 47.695L97.185 38.185L92.541 38.361L92.906 47.871L90.506 47.963L90.066 36.478L99.509 36.12ZM112.595 41.374C112.643 42.626 112.446 43.701 112.005 44.597C111.568 45.494 110.951 46.189 110.153 46.684C109.36 47.174 108.456 47.439 107.443 47.477C106.423 47.516 105.498 47.319 104.669 46.887C103.84 46.453 103.173 45.807 102.668 44.946C102.163 44.086 101.887 43.031 101.839 41.782C101.791 40.53 101.986 39.455 102.423 38.559C102.861 37.662 103.476 36.969 104.27 36.479C105.063 35.984 105.97 35.717 106.991 35.679C108.004 35.64 108.925 35.837 109.754 36.27C110.587 36.699 111.255 37.344 111.76 38.204C112.269 39.064 112.547 40.121 112.595 41.374ZM110.133 41.467C110.102 40.656 109.954 39.977 109.69 39.429C109.429 38.881 109.075 38.471 108.626 38.199C108.178 37.929 107.66 37.804 107.073 37.826C106.486 37.849 105.98 38.012 105.553 38.316C105.127 38.621 104.803 39.056 104.581 39.622C104.363 40.189 104.27 40.877 104.301 41.688C104.332 42.5 104.478 43.179 104.739 43.728C105.003 44.275 105.359 44.685 105.808 44.956C106.256 45.227 106.774 45.352 107.361 45.329C107.948 45.307 108.455 45.144 108.881 44.839C109.307 44.535 109.629 44.099 109.847 43.533C110.069 42.967 110.164 42.278 110.133 41.467ZM114.614 47.047L114.173 35.563L116.602 35.471L116.783 40.21L121.713 40.022L121.531 35.284L123.953 35.192L124.394 46.677L121.971 46.769L121.789 42.024L116.86 42.212L117.042 46.956L114.614 47.047ZM126.396 46.601L125.955 35.116L133.694 34.822L133.771 36.824L128.46 37.026L128.565 39.762L133.478 39.576L133.555 41.578L128.642 41.764L128.747 44.506L134.08 44.304L134.157 46.306L126.396 46.601ZM135.549 49.027L135.368 44.323L136.148 44.293C136.406 44.093 136.639 43.813 136.846 43.458C137.053 43.098 137.223 42.607 137.357 41.984C137.49 41.357 137.571 40.542 137.6 39.537L137.739 34.669L145.337 34.38L145.704 43.93L146.96 43.883L147.14 48.576L144.807 48.665L144.701 45.905L137.776 46.169L137.882 48.939L135.549 49.027ZM138.952 44.187L143.371 44.019L143.081 36.471L140.003 36.588L139.933 39.448C139.913 40.21 139.859 40.886 139.769 41.477C139.697 42.0041 139.584 42.5247 139.43 43.034C139.311 43.434 139.151 43.8204 138.952 44.187ZM148.51 45.761L148.07 34.277L155.809 33.983L155.885 35.985L150.575 36.187L150.68 38.923L155.592 38.737L155.669 40.739L150.756 40.925L150.862 43.667L156.195 43.465L156.271 45.467L148.51 45.761ZM157.557 45.418L157.482 43.467L157.806 43.427C158.224 43.377 158.556 43.205 158.803 42.911C159.05 42.613 159.225 42.148 159.328 41.515C159.435 40.878 159.486 40.026 159.483 38.96L159.477 33.844L167.272 33.548L167.713 45.032L165.352 45.122L164.986 35.583L161.806 35.704L161.78 39.709C161.77 40.997 161.657 42.054 161.441 42.879C161.23 43.702 160.864 44.319 160.344 44.729C159.828 45.137 159.108 45.359 158.185 45.394L157.557 45.418ZM171.035 37.656L173.772 37.553C174.684 37.518 175.475 37.636 176.144 37.906C176.817 38.173 177.343 38.566 177.723 39.087C178.102 39.608 178.304 40.231 178.328 40.957C178.359 41.678 178.206 42.322 177.868 42.889C177.531 43.452 177.037 43.902 176.387 44.237C175.741 44.572 174.962 44.757 174.05 44.792L169.76 44.955L169.319 33.47L171.742 33.378L172.107 42.911L173.975 42.841C174.412 42.824 174.777 42.731 175.07 42.563C175.343 42.4136 175.568 42.1899 175.718 41.9178C175.869 41.6457 175.939 41.3365 175.921 41.026C175.917 40.807 175.865 40.5916 175.769 40.3951C175.672 40.1987 175.533 40.0262 175.361 39.89C175.005 39.585 174.5 39.446 173.845 39.47L171.109 39.574L171.035 37.656ZM180.402 44.551L179.961 33.066L182.389 32.974L182.571 37.713L187.5 37.526L187.319 32.787L189.741 32.695L190.182 44.18L187.759 44.272L187.577 39.528L182.648 39.715L182.83 44.459L180.402 44.551ZM191.743 32.619L194.166 32.527L194.443 39.75L194.538 39.746L199.224 32.336L201.349 32.255L201.79 43.739L199.362 43.831L199.085 36.603L199 36.606L194.287 44.024L192.184 44.104L191.743 32.619ZM210.744 43.399L206.866 38.644L206.037 38.675L206.224 43.571L203.796 43.663L203.356 32.179L205.784 32.086L205.96 36.673L206.448 36.655L210.085 31.923L213.108 31.808L208.831 37.306L213.756 43.286L210.744 43.399Z" fill="black"/>
</g>
<defs>
<clipPath id="clip0_1_15">
<rect width="240" height="57" fill="white" transform="translate(0.5 0.5)"/>
</clipPath>
</defs>
</svg>
